<?xml version="1.0" encoding="UTF-8"?>
<!DOCTYPE svg PUBLIC "-//W3C//DTD SVG 1.1//EN" "http://www.w3.org/Graphics/SVG/1.1/DTD/svg11.dtd">
<!-- Creator: CorelDRAW 2020 (64-Bit) -->
<svg xmlns="http://www.w3.org/2000/svg" xml:space="preserve" width="1500mm" height="1000mm" version="1.1" style="shape-rendering:geometricPrecision; text-rendering:geometricPrecision; image-rendering:optimizeQuality; fill-rule:evenodd; clip-rule:evenodd"
viewBox="0 0 150000 100000"
 xmlns:xlink="http://www.w3.org/1999/xlink"
 xmlns:xodm="http://www.corel.com/coreldraw/odm/2003">
 <defs>
  <style type="text/css">
   <![CDATA[
    .fil0 {fill:#E32124}
   ]]>
  </style>
 </defs>
 <g id="Layer_x0020_1">
  <metadata id="CorelCorpID_0Corel-Layer"/>
  <path class="fil0" d="M21347.02 58488.45l1845.34 559.98c1178.58,387.19 2537.08,767.02 3735.03,1148.61 309.96,98.75 603.88,191.81 922.32,280.35 239.94,66.68 289.18,24.71 365.28,254.27 40.55,122.46 119.88,375.44 129.44,490.16l-5592.21 712.74c-278.93,40.55 -528.46,89.01 -822.11,89.01 -5.6,-252.67 -583.09,-1918.73 -583.09,-3535.12zm108860.71 -21866.92l0 2156.78c-7.58,551.41 -26.82,1099.76 -70.98,1635.41 -9.6,116.31 2.62,246.26 -0.74,363.69 -4.99,174.89 -29.7,166.37 -37.7,326.75 -48.65,975.62 -140.63,1957.57 -261.72,2945.45 -154.53,1261.1 -340.49,2500.92 -591.57,3745.23 -465.96,2309.67 -1075.57,4581.55 -1820.85,6816.71l-1605.19 4153.08c-415.48,994.99 -901.15,1957.78 -1381.67,2918.8l-886.85 1664.3c-47.18,88.37 -65.48,132.71 -114.42,213.59 -357.1,590.41 -685.32,1242.71 -1063.94,1815.21 -194.31,293.78 -358.27,595.01 -561.1,896.72 -770.2,1145.73 -1526.21,2303.13 -2354.48,3403.79l-1247.53 1595.17c-117.73,144.07 -205.46,261.28 -327.75,401.13 -112.78,128.97 -192.41,257.54 -310.74,381.73 -121.73,127.71 -221.47,260.55 -331.79,397.09l-682.4 775.37c-120.52,155.82 -215.18,218.28 -328,364.46l-2830.78 2927.54c-255.21,255.22 -490.84,454.17 -746.57,711.2l-1130.62 1019.65c-1402.5,1239.22 -2888.42,2410.91 -4418.37,3490.14l-2587.49 1749.44 -3643.25 2115.06c-304.76,177.09 -613.05,309.58 -937.18,484.13 -2001.9,1078.02 -4916.01,2302.4 -7077.39,3017.85 -2281.99,755.36 -3238.37,994.95 -5559.02,1584.19 -783.5,198.91 -1580.53,331.45 -2387.45,491.66 -1091.93,216.82 -2699.92,471.6 -3792.4,544.57l-4009.96 290.51c-243.2,-1.25 -486.41,0.64 -729.61,-0.73 -259.44,-1.51 -387.41,33.44 -636.64,36.93l-112.13 0c-144.42,-0.52 -288.96,-0.43 -433.42,0l-313.54 0c-210.24,-5.73 -331.28,-37.97 -580.9,-36.68 -243.03,1.25 -486.19,-0.56 -729.27,0.35 -288.79,1.07 -428.43,-38.57 -691.48,-37.41l-2707.96 -171.19c-240.71,-31.21 -434.93,-27.63 -676.5,-52.38l-1274.65 -146.7c-1048.28,-128.45 -2092.86,-262.06 -3137.78,-470.27 -3197.78,-637.24 -4976.87,-1065.88 -7989.21,-2069.57 -377.12,-125.64 -696.9,-254.91 -1075.27,-382.49 -351.03,-118.38 -691.18,-257.07 -1028.69,-392.66 -340.02,-136.58 -683.39,-282.42 -1036.01,-421.8 -660.4,-261.03 -1334.53,-552.27 -1970.09,-872.61 -328.18,-165.42 -630.53,-297.44 -959.43,-461.92 -1297.73,-648.86 -2491.28,-1320.41 -3708.9,-2049.38 -1339,-801.67 -2626.83,-1688.44 -3868.21,-2618.99l-2594.63 -2106.72c-408.71,-364.03 -2135.16,-1901.86 -2570.39,-2422.53l-526.83 -530.1c-422.1,-422.1 -1022.97,-1055.55 -1372.97,-1506.15l-668.92 -788.89c-122.12,-140.02 -210.02,-257.02 -327.75,-401.18 -111.53,-136.49 -205.54,-239.98 -310.44,-382.02 -213.03,-288.49 -418.48,-533.98 -635.13,-822.64 -112.47,-149.8 -204.63,-266.1 -309.15,-419.73l-889.31 -1260.97c-1579.41,-2369.07 -2938.69,-4827.46 -3997.6,-7482.53 -137.36,-344.45 -235.54,-708.22 -390.38,-1030.93 -568.1,0 -1212.02,145.32 -1756.02,212 -1725.46,211.44 -3416.41,471.99 -5132.05,662.68 -580.98,64.57 -1090.6,163.14 -1304.31,-517.92 -498.85,-1589.48 -882.39,-3210.95 -882.39,-4912.35l0 -710.59c21.87,-220.74 84.59,-426.54 245.1,-575 423.82,-392.01 982.89,-86.43 1467.8,46.45 882.47,241.83 1766.96,564.79 2652.78,809.5 278.85,77.01 611.24,199.04 890.09,276.14l2652.78 809.51c-36.28,-435.84 -188.45,-967.66 -276.48,-1400 -491.14,-2411.78 -494.58,-4656.15 -379.22,-7091.34 39.86,-841.84 222.71,-1731.88 358.99,-2556.58 104.22,-630.74 280.4,-1270.31 455.16,-1877.33 881.7,-3063.17 2097.89,-5142.08 4027.56,-7525.45 496.14,-612.74 1673.47,-1803.54 2321.68,-2306.83l1312.49 -1019.95c454.13,-328.48 886.04,-630.74 1375.29,-920.74 253.28,-150.18 472.16,-295.76 730.01,-436.22 514.34,-280.22 998.38,-555.92 1530.16,-802.31 274.89,-127.42 506.21,-221.77 777.61,-352.2 530.15,-254.7 1102.43,-476.94 1665.63,-666.81 372.65,-125.65 1367.42,-529.46 1735.93,-560.1 0,-681.67 286.94,-1280.81 610.51,-1649.1 1037.47,-1181.03 3335.65,-667.33 4408.98,128.31 351.76,260.81 239.93,391.63 676.11,329.51 1145.43,-163.09 2792.46,-302.95 3998.72,-302.95 170.54,-732.07 250.43,-1480.1 460.88,-2199.6 53.29,-182.08 90.87,-329.73 142.91,-513.14 419.39,-1477.44 1146.21,-3229.77 2211.62,-4348.42 77.26,-81.19 79.84,-99.87 147.38,-180.62 773.52,-925.12 2186.01,-1729.29 3404.14,-2208.39 481.46,-189.35 985,-333.68 1489.14,-478.83 255.69,-73.65 278.94,-91.69 530.32,-63.49 520.89,58.41 1996.73,6.58 2619.98,6.58 22.17,-266.88 740.64,-2707.19 793.5,-2778.08 236.4,-317.16 816.18,-137.49 1138.07,-137.49 -44.47,-190.86 -94.1,-404.54 -138.18,-590.75 -227.4,-960.98 -104.04,-918.02 801.93,-1150.86 201.84,-51.82 374.63,-103.65 575.39,-153.54 70.76,-17.56 243.81,-48.72 296.02,-68.4 155.26,-58.54 92.24,-21.69 110.84,-217.16 39.9,-419.56 104.73,-902.7 137.01,-1320.75 31.64,-409.49 14.72,-981.26 440.1,-981.26 600.48,0 1272.11,387.84 1858.68,400.88 466.23,-2001.12 2.37,-2166.55 1204.15,-2151.7l758.58 43.22c129.48,14.51 186.95,31.12 369.76,31.12 11.11,-133.48 173.56,-494.67 233.69,-640.98 99.78,-242.69 154.71,-353.4 419.95,-418.27 249.19,-60.91 904.12,-45.54 1062.35,-249.66l877.87 -1235.91c116.35,-175.97 321.07,-304.16 569.65,-220.52 169.56,57.03 1375.51,902.31 1532.07,1021.8 304.24,232.32 332.99,123.93 633.36,38.35 506.94,-144.37 2969.12,-955.25 3272.03,-955.25 214.11,0 437.34,190.17 437.34,400.88 0,266.27 -250.78,601.94 -388.39,850.52 -176.02,317.94 -1020.04,1798.6 -1251.63,2065.05 117.13,174.94 216.74,355.34 335.02,539.7 249.49,388.83 529.37,834.39 -84.45,1059.34l-1177.07 426.49c-193.79,74.94 -392.23,179.97 -604.18,197.62 3.53,157.93 32.45,149.2 37.66,326.8l36.07 947.9c-5.68,1315.84 267.14,1047.07 -832.23,1793.51 -265.8,180.45 -508.58,363.31 -772.19,539.83 42.66,512.46 145.8,1009.28 145.8,1567.1 0,188.76 -100.94,347.34 -279.28,413.19 -244.93,90.4 -972.86,61.56 -1251.54,60.53 -244.79,-0.95 -393.82,36.54 -583,36.54l0 1530.69c0,183.2 -130.86,322.49 -273.64,384.09 -325.68,140.5 -1145.25,-265.81 -1548.59,-274.76l34.57 1459.75c47.65,559.88 -62.03,777.69 -601.43,852.55l-2556.45 322.66c-186.6,24.67 -395.15,61.95 -630.52,61.95 -244.76,510.08 -946.69,4149.03 -1180.69,4541.13 -306.26,513.18 -1483.42,1425.99 -2004.61,1785.64 -91,62.76 -301.74,204.07 -349.83,269.76 828.84,0 1971.21,280.74 2712.49,567.51 427.61,165.42 769.22,298.6 1150.64,489.38 460.28,230.2 885.91,493.6 1312.02,765.6l697.89 504.53c158.19,129.18 296.45,245.66 457.61,380.6 78.26,65.56 129.01,127.8 201.36,199.56 90.31,89.49 129.7,103.05 219.1,181.78l787.86 852.16c129.05,159.96 253.45,287.68 380.09,458.13 122.07,164.31 221.64,294.48 343.93,457.87 1498.83,2003.8 2383.15,4585.64 2795.39,7044.73 297.36,1773.93 408.58,4527.14 145.71,6408.94l-249.79 1864.03c-463.51,2772.36 -1315.29,5713.85 -2416,8262.38 -110.58,256.11 -573.4,1242.06 -629.79,1483.98 248.59,-57.9 620.32,-326.8 862.45,-449.57 567.55,-287.88 1111.26,-634.96 1637.65,-986.38 882.99,-589.5 2844.6,-2026.56 3668.74,-2854.88l509.4 -474.61c408.92,-360.07 743.99,-780.75 1130.62,-1165.41l766.59 -873.42c1353.34,-1600.08 2612.54,-3316.07 3621.08,-5162.15l1751.77 -3496.29c70.46,-164.99 130.08,-295.21 197.49,-458.48 909.93,-2204.38 1688.87,-4485.08 2276.22,-6835 151.48,-605.95 218.89,-1625.38 962.19,-1625.38l38558.65 0c463.26,0 728.89,406.47 728.89,838.21zm-100332.66 24235.82c-50.02,-104.34 -152.46,-455.46 -182.21,-583.13 160.39,-42.83 2124.45,-1314.12 2367.18,-1459.49 261.42,-156.55 509.91,-326.19 782.48,-493.12l8670.1 -5434.06c196.54,-116.22 669.78,-448.87 826.6,-485.42 5.12,228.53 221.51,793.84 295.8,1016.25 223.92,670.09 499.58,1194.98 809.25,1814.74l498.55 849.97c-132.24,10.98 -327.23,87.25 -448.06,135.08 -683.73,270.79 -2282.47,775.07 -3073.81,1044.44 -3211.81,1093.31 -6432.06,2227.29 -9638.96,3298.94 -284.23,94.95 -624.54,230.03 -906.92,295.8zm14760.17 -6742.28l922.37 790.52c920.78,778.17 2043.48,1527.5 3084.7,2126.95 3648.68,2100.51 8315.97,3272.54 12476.89,1648.97 2226.98,-868.95 2865.51,-1765.28 3269.14,-1978.87l2243.86 1801.57c135.46,106.4 228.4,184.7 364.42,291.54l1869.28 1520.1c145.53,118.54 1421.99,1118.35 1499.39,1233.97 -207.74,17.26 -626.05,196.29 -866.93,262.79 -272.05,75.16 -566.6,172.53 -869.47,260.34 -1159.55,336.18 -2531.18,601.9 -3755.77,763.4 -308.63,40.68 -666.6,64.05 -1015.82,113.94 -560.97,80.2 -2773.53,146.44 -3290.33,88.42 -647.87,-72.75 -1286.06,-82.56 -2067.28,-192.29 -3290.11,-462 -7137.62,-1660.76 -9757.51,-3799.97 -111.75,-91.26 -200.29,-144.21 -307.3,-239.72l-911.4 -801.16c-1275.81,-1279.99 -1830.32,-1955.93 -2694.32,-3501.29 -76.62,-137.05 -155.82,-225.73 -193.92,-389.21zm0 0l0 0zm-400.88 -2587.62c840.37,0 5103.69,1800.06 6185.16,2233.61 1382.69,554.34 2777.01,1018.24 4237.62,1374.91 407.68,99.52 1340.08,252.8 1788.13,289.22l690.58 34.48c119.62,0 128.66,-28.76 290.33,-33.75 771.63,-23.8 1307.41,-103.57 2052.78,-425.5 583.05,-251.86 1266.26,-761.99 1592.93,-1249.82 217.59,58.12 803.91,719.07 1051.46,916.56 199.17,158.88 329.34,326.2 515.64,468.34 234.34,178.85 378.32,428.85 546.67,473.79 -42.96,160.99 -408.58,404.11 -553.86,503.03 -707.27,481.41 -1229.32,817.73 -2075.33,1131.83 -2937.7,1090.5 -5710.71,729.91 -8553.84,-328.35l-855.95 -346.73c-906.66,-436.91 -1469.26,-696.13 -2341.36,-1230.23 -135.67,-83.12 -215.78,-146.01 -354.99,-228.14l-717.17 -485.5c-122.85,-86.83 -224.44,-171.67 -357.58,-262.02l-996.11 -789.66c-64.74,-52.43 -83.68,-78.73 -156.21,-135.38l-467.77 -406.86c-125.73,-127.5 -202.91,-175.02 -328.3,-290.26l-1192.83 -1213.57zm31998.58 38959.54c-921.55,0 -1940.22,40.33 -2844.64,-34.53 -165.42,-13.69 -375.74,-0.43 -545.98,-0.64 -231.11,-0.35 -302.78,-40.34 -544.69,-38.44 -1285.07,9.98 -4792.73,-427.87 -6128.6,-650.16 -3378.74,-562.21 -6636.39,-1409.64 -9829.48,-2598.2 -935.15,-348.1 -1874.57,-765 -2790.74,-1145.34 -165.38,-68.66 -244.5,-117.65 -400.84,-182.26l-774.34 -355.42c-513.31,-258.79 -1001.87,-502.38 -1506.36,-753.25l-2886.17 -1632.96c-1032.05,-651.31 -2058.72,-1297.33 -3033.52,-2032.33 -940.5,-709.17 -2306.62,-1717.02 -3146.21,-2502.73l-437.34 -400.92c-72.49,-64.05 -90.74,-64.09 -163.44,-128.1l-1458.07 -1384.63c-451.16,-451.16 -1380.93,-1384.29 -1771.26,-1873.24l-1942.03 -2321.98c-481.8,-646.71 -984.53,-1284.47 -1430.99,-1958.38 -158.88,-239.85 -294.77,-442.42 -451.84,-677.96 -671.55,-1007.17 -1742.47,-2784.03 -2256.77,-3938.85 -294.95,-662.2 -611.93,-1253.73 -900.38,-1942.32 -117.43,-280.4 -213.33,-515.21 -327.96,-801.8 -59.01,-147.56 -98.7,-241.14 -153.02,-393.69 -47.7,-133.92 -106.63,-313.72 -159.4,-423.7 316.51,-26.34 11519,-3924.77 13607.81,-4614.61 242.04,-79.93 701.51,-286.12 933.69,-305.44l1412.22 1576.22c254.75,254.83 500.28,489.38 779.81,714.42 1565.94,1260.75 2551.63,1967.98 4587.32,2883.89 692.34,311.52 1427.98,563.9 2190.69,797.76 1681.69,515.68 3154.22,847.77 4908.7,1068.29 435.23,54.71 918.19,55.32 1370.6,123.67l1478.85 51.83c850.23,0 1788.36,-57.77 2557.31,-139.64 1243.23,-132.36 2320.78,-313.41 3489.54,-555.8 1434.78,-297.57 2794.96,-784.93 4153.47,-1276.85 645.76,-233.82 1262.25,-513.7 1875.09,-821.81 1486,-747.09 2920.26,-1570.37 4267.32,-2547.93 884.45,-641.85 1280.16,-999.25 2056.56,-1624.31l561.23 -495.66c133.39,-136.2 236.23,-198.27 364.89,-327.57 457.22,-459.55 887.25,-893.36 1348.09,-1348.82l797.92 -878.55c72.36,-90.36 86.61,-109.68 167.62,-196.81l920.69 -1120.2c1242.24,-1626.07 1969.7,-2776.97 2972.7,-4462.06 50.32,-84.5 66.25,-130.51 113.12,-214.88 182.38,-328.43 512.37,-801.16 594.71,-1154.64 11625.93,0 23251.81,0 34877.7,0 668.31,0 4704.4,-75.2 4992.97,36.24 -13.17,357.49 -167.92,813.55 -239.89,1181.68 -467.34,2390.59 -1530.81,5669.94 -2431.06,7919.26 -569.36,1422.52 -1159.55,2751.36 -1823.91,4080.12 -334.41,668.79 -671.8,1278.05 -1020.42,1931.61l-2524.39 4108.61 -1227.94 1724.09c-677.53,900.24 -2042.71,2718.77 -2786.1,3482.39l-875.41 983.32c-122.16,138.78 -242,220.91 -357.87,371.01 -219.75,284.61 -819.41,879.75 -1081.38,1141.73l-929.82 892.45c-69,63.84 -114.16,115.02 -181.78,182.69l-583.56 546.19c-68.7,63.58 -114.68,115.06 -181.61,182.86 -309.32,313.15 -665.35,575.6 -984.44,874.2 -93.07,87.08 -104.04,104.86 -212.09,188.84 -86.6,67.24 -114.02,109.08 -192.28,172.14 -89.4,72.06 -110.06,87.08 -196.76,167.7 -83.72,77.83 -116.61,86.35 -200.33,164.13l-2685.28 2125.4c-1266.05,954.61 -2592.83,1862.09 -3955.12,2677.88l-1393.63 829.52c-1776.85,1068.12 -3121.8,1633.95 -4876.62,2485.21 -836.54,405.83 -1730.93,735.08 -2597.82,1083.15 -1627.79,653.55 -3322.48,1156.49 -5014.71,1654.65l-2364.21 587.82c-784.8,166.85 -1634.03,358.01 -2455.68,496.36 -856.47,144.16 -1670.84,260.59 -2566.87,385.21 -889.61,123.71 -1789.42,171.49 -2681.79,270.19 -118.59,13.13 -239.46,-2.11 -357.15,7.32 -845.27,67.71 -1652.11,107.36 -2516.63,107.36zm-18842.01 -36590.59c-1027.87,0 -1540.37,-48.6 -2544.18,-298.52 -2352.93,-585.84 -4250.84,-1430.95 -6442.09,-2304.68 -154.58,-61.6 -267.48,-118.85 -411.86,-171.23 -1109.44,-402.65 -2329.43,-959.43 -3537.44,-1127.53 -158.06,-21.99 -350.78,-30.39 -529.16,-56.43 -474.22,-69.26 -530.05,456.63 -530.05,-1180.34 0,-1781.29 416.37,-3781.6 1031.06,-5346.76 381.25,-970.84 507.71,-1266 973.37,-2197.32 183.16,-366.28 364.6,-679.6 558.77,-1044.8 99.18,-186.51 205.63,-316.46 303.51,-498.29 74.56,-138.47 208.6,-426.19 340.4,-461.4 89.28,334.34 1979.35,2442.94 2270.33,2686.19 804.6,672.58 1561.38,1477.35 2608.19,1801.61 2362.92,732.03 5947.55,-1280.63 7767.84,-1280.63 611.02,0 924.61,-38.83 1311.93,510.34 1641.09,2326.76 815.53,5988.65 31.89,8341.11 -293.95,882.47 -409.79,1234.88 -1042.59,1872.98 -431.53,435.14 -1297.51,755.7 -2159.92,755.7zm70630.1 -8017.89l-39360.41 0c34.27,-71.36 45.85,-122.89 85.1,-206.44 235.5,-501.26 514.44,-1270.26 680.25,-1615.78l38850.19 0 -255.13 1822.22zm-38011.97 -3352.91l548.95 -1637.74c31.47,-99.13 24.23,-184.49 143.51,-184.49l37866.19 0 -75.03 1164.07c-57.12,744.38 125.22,658.38 -617.44,658.16l-37866.18 0zm38631.52 -3389.37l-37538.18 0 412.89 -1628.05c27.81,-118.94 9.38,-194.18 133.78,-194.18l37027.97 0c0,271.49 35,1662.36 -36.46,1822.23zm-86775.12 9220.56c0,629.41 -8.61,1008.21 38.83,1637.61 18.46,245.01 70.51,491.06 70.51,767.71l-1205.22 758.24c-6.33,4.05 -15.2,9.99 -21.53,14.12l-4079.81 2558.56c-294.39,197.88 -568.41,360.72 -873.69,547.66 -175.88,107.74 -732.15,515.08 -926.5,531.26 0,-520.45 -121.43,-1026.75 -145.71,-1530.72 -142.14,-2949.33 -156.77,-5395.32 778.56,-8259.63 742.96,-2275.19 1734.59,-4008.58 3241.08,-5797.27 492.74,-585.07 1383.43,-1476.32 1968.02,-1967.98l2496.75 -1876.64c175.66,-109.81 313.88,-203.65 492.56,-309.24 179.07,-105.8 319.57,-208.46 498.59,-303.16 79.34,102.1 111.15,222.37 170.25,339.92 390.59,777.01 746.18,1566.5 1251.1,2320.52 -102.7,194.18 -223.23,338.77 -339.75,534.93 -329.94,555.41 -697.33,1110.73 -996.45,1700.49 -188.41,371.44 -428.69,764.66 -605.91,1179.87 -395.88,927.58 -702.49,1570.89 -1005.53,2566.05 -137.7,452.23 -282.98,905.15 -389.9,1395.91 -209.2,960.51 -416.25,2051.83 -416.25,3191.79zm9329.86 -9767.23c884.88,0 1467.06,-147.69 2089.84,-424.86 766.72,-341.3 1430.09,-843.3 2053.98,-1371.85 73.48,-62.28 90.7,-92.67 172.1,-155.91l1980.33 -1809.87c866.63,-806.28 1864.93,-1575.84 2924.31,-2105.12 3240.01,-1618.84 7147.21,-1224.77 9986.25,947.16 138.65,106.06 285.78,220.39 426.19,339.15 496.74,420.12 726.52,709.69 1150.34,1145.69 68.14,70.12 102.75,125.22 164.09,200.38 1071.82,1314.47 1725.42,2563.98 2309.03,4178.17 67.36,186.34 126.55,367.78 185.52,579.78 248.93,894.69 425.89,1549.96 564.62,2496.79 669.96,4572.85 -149.71,8835.52 -1570.28,13132.33 -455.72,1378.52 -1047.08,2700.78 -1615.79,4033.15l-374.96 791.26 -1551.39 -1254.9c-535.05,-420.25 -1023.83,-837.4 -1551.18,-1255.11 -527.38,-417.7 -1022.92,-829.65 -1550.91,-1255.32l-1169.32 -944.45c-133.44,-109.17 -274.29,-229.22 -409.28,-319.61l932.19 -1509.64c113.08,-189.4 176.36,-354.56 291.54,-546.67 250.66,-417.93 836.72,-1891.92 986.13,-2330.38 568.92,-1669.93 997.26,-3526.04 997.26,-5708.55 0,-3096.07 -819.57,-5902.26 -2633.11,-7717.18l-324 -290.16c-5.85,-4.61 -14.33,-11.32 -20.06,-16.14l-57.12 -54.5c-1018.96,-955.56 -2666.3,-1434.13 -4254.66,-1434.13 -1066.19,0 -2206.76,279.06 -3020.44,551.15 -808.43,270.36 -1213.74,489.68 -1910.12,786.77 -230.94,98.53 -376.09,205.93 -596.82,314.32 -877.65,431.05 -1693.05,1005.28 -2498,1547.39 -307.47,207.04 -509.65,341.9 -1009.97,186.81 -324.94,-100.72 -930.46,-478.27 -1096.31,-725.95zm-18113.09 12792.14c0,460.46 38.49,808.82 36.38,1239.23 -2.93,587.48 127.2,1747.29 185.61,2365.5 16.48,174.16 49.54,367.95 69.56,549.99 20.75,188.92 72.92,396.1 72.92,583.09l-4191.18 2624.03 -296.79 -1452.52c-646.71,-3943.02 -697.98,-6676.21 253.1,-10545.06 136.89,-556.83 321.29,-1174.75 517.45,-1669.25 101.8,-256.59 193.44,-501.09 296.79,-760.09 501.01,-1255.62 1144.79,-2389.56 1896.79,-3497.07 749.5,-1103.89 1557.37,-1952.22 2498.72,-2895.13l1450.88 -1246.02c118.07,-89.58 202.14,-141.11 318.23,-228.45 217.77,-163.91 403.94,-305.83 630.49,-462.86 1677.12,-1162.22 3892.74,-2219.32 5814.23,-2859.62 194.95,-64.95 649.77,-244.45 833.61,-259.73 6.37,285.6 159.7,531.18 182.21,801.76 -220.56,58.88 -1829.42,1126.66 -2160.48,1374.64 -959.99,719.07 -1547.86,1147.03 -2421.71,1988.13 -94.66,91.13 -143.69,107.87 -238.35,199 -643.69,619.5 -1311.8,1408.3 -1873.96,2098.49 -2364.73,2903.31 -3874.5,7195.46 -3874.5,12051.94zm18513.97 -14359.29c-732.5,0 -1364.06,-105.03 -1993.47,-484.77 -124.7,-75.25 -106.45,-89.84 -195.55,-241.74 -71.41,-121.78 -260.34,-425.16 -289.22,-549.04l992.41 -1157.83c194.6,-196.63 335.06,-370.4 529.15,-564.19l2742.49 -2687.78c135.38,90.65 225.86,224.43 363.73,328.69 428.95,324.34 779.89,558.34 1307.02,770.33 606.12,243.77 1444.64,468.08 2301.75,468.08l-3248.31 2910.88c-249.7,197.28 -432.47,344.06 -709.55,529.58 -430.63,288.32 -1109.71,677.79 -1800.45,677.79zm11414.53 10095.63c132.71,-2337.95 -522.14,-6012.84 -3214.22,-6232.03 -2388.02,-194.43 -6104.88,1992.47 -7978.46,1308.49 -563.85,-205.8 -1459.92,-1019.7 -1823.82,-1347.36 -372.3,-335.23 -808.52,-838.6 -1167.25,-1236.86 -1435.3,-1593.18 -3876.91,-5481.88 -3989.08,-7908.63 -11.41,-246.91 -0.43,-528.94 74.68,-742.06 243.81,-691.73 1164.46,-486.32 1760.5,-312.93 1628.44,473.62 1427.38,1763.25 1004.68,3149.18 -391.63,1284.12 -653.82,1313.47 -71.41,2406.86 891.55,1673.73 2648.69,4491.46 4802.71,4702.98 1091.19,107.14 1641.7,-448.83 2276.44,-866.62 652.87,-429.68 1258.3,-791.9 1985.46,-1184.82 1275.12,-688.98 3198.9,-1441.41 4948.21,-1391.05 3655.52,105.25 5289.42,3511.8 5435.65,7249.1 73.95,1890.37 -223.75,3915.73 -771.07,5576.28 -409.14,1241.34 -812.86,2189.15 -1454.49,3282.67 -180.49,307.6 -403.12,686.22 -615.42,932.4l-1791.8 -1664.99c-105.5,-101.89 -206.05,-169.68 -314.87,-270.19 -65.09,-60.14 -223.75,-228.57 -251.86,-275.66 567.94,-1370.26 1061.54,-3520.28 1155.42,-5174.76zm-13564.77 -14068.09c0,-575.86 156.22,-787.29 0,-1457.81 383.28,0 1200.27,-137.61 1567.15,-145.75 -136.63,203.99 -1250.72,1239.53 -1567.15,1603.56zm8455.23 -1676.48c-997.19,0 -2018.65,-113.46 -2821.52,-640.77l-357.45 -256.68c-5.64,-4.77 -13.43,-12.26 -18.98,-17.21 -256.6,-227.5 -231.93,-82.69 -72.71,-898.18 146.7,-751.48 260.43,-1288.21 472.29,-2042.41l304.72 -934.38c47.09,-121.9 64.65,-206.96 114.03,-323.35 602.03,-1418.9 1197.73,-2472.38 2452.45,-3415.12 495.92,-372.59 1049.14,-674.13 1634.85,-916.3 270.84,-111.96 964.82,-390.07 1238.02,-443.62 189.32,-37.11 237.87,74.73 443.67,339.5l1886.75 2304.37c509.1,624.76 1002.18,1217.62 1510.97,1841.95l1328.63 1623.4c66.03,81.57 144.94,170.89 193.66,243.68 -377.03,252.5 -874.46,749.84 -1683.45,1268.54 -690.96,443.06 -1635.33,965.5 -2403.03,1277.88 -180.75,73.56 -332.79,135.98 -520.81,208.12 -1074.83,412.5 -2543.62,780.58 -3702.09,780.58z"/>
 </g>
</svg>
